# xmcd CD database file
#
# Track frame offsets:
#	150
#	21597
#	42971
#	61460
#	79045
#	98913
#	115932
#	130190
#	148582
#	167763
#	184236
#	200808
#	219078
#	237293
#	257248
#	278383
#	294368
#	316020
#
# Disc length: 4435 seconds
#
# Revision: 0
# Processed by: cddbd v1.5PL3 Copyright (c) Steve Scherf et al.
# Submitted via: CDex 1.51
#
DISCID=05115112
DTITLE=Alena Sviridova - Best Songs
DYEAR=1900
DGENRE=Rhythmic Soul
TTITLE0=Budet tak
TTITLE1=Rozoviy Flamingo
TTITLE2=Prosto Konchilas zima
TTITLE3=Esli ti zaxochesh
TTITLE4=Dva angela
TTITLE5=Lunniy svet
TTITLE6="Vashi paltsi paxnut ladanom"
TTITLE7=Ya stanu vetrom
TTITLE8=Nikto-nikogda
TTITLE9=Golos nochi
TTITLE10=V gorode N
TTITLE11=Bednaya ovechka
TTITLE12=Stariy polkovnik
TTITLE13=Karmencita
TTITLE14=Nochyu vse inache
TTITLE15=Prizrachniy geroy
TTITLE16=Schastye moye
TTITLE17=Kolibelnaya
EXTD=
EXTT0=
EXTT1=
EXTT2=
EXTT3=
EXTT4=
EXTT5=
EXTT6=
EXTT7=
EXTT8=
EXTT9=
EXTT10=
EXTT11=
EXTT12=
EXTT13=
EXTT14=
EXTT15=
EXTT16=
EXTT17=
PLAYORDER=
